<svg width="51" height="25" viewBox="0 0 51 25" fill="none" xmlns="http://www.w3.org/2000/svg">
<g id="Vector">
<path d="M16.7094 8.51097C16.3277 7.88261 15.8 7.40012 15.1264 7.0635C14.4753 6.72687 13.7006 6.55856 12.8025 6.55856C11.141 6.55856 9.82745 7.09716 8.86196 8.17435C7.91893 9.25154 7.44741 10.699 7.44741 12.5168C7.44741 14.559 7.95261 16.1186 8.96301 17.1958C9.99585 18.2506 11.489 18.7779 13.4424 18.7779C15.7551 18.7779 17.4054 17.7344 18.3934 15.6474H11.7584V10.901H24.0853V17.2968C23.5688 18.5535 22.8054 19.7317 21.795 20.8313C20.8071 21.931 19.5497 22.8399 18.0229 23.558C16.4961 24.2537 14.7559 24.6015 12.8025 24.6015C10.4225 24.6015 8.31186 24.0966 6.47069 23.0867C4.65198 22.0544 3.23743 20.6294 2.22703 18.8116C1.23909 16.9714 0.745117 14.8731 0.745117 12.5168C0.745117 10.1829 1.23909 8.10702 2.22703 6.28926C3.23743 4.44906 4.65198 3.02403 6.47069 2.01416C8.28941 0.981856 10.3888 0.465702 12.7688 0.465702C15.7551 0.465702 18.225 1.18383 20.1784 2.62008C22.1318 4.05634 23.3443 6.01997 23.8158 8.51097H16.7094Z" fill="#424B5A"/>
<path d="M38.5867 24.6688C36.3638 24.6688 34.3206 24.1527 32.4569 23.1204C30.5933 22.0656 29.1114 20.6181 28.0112 18.7779C26.9335 16.9153 26.3946 14.817 26.3946 12.4831C26.3946 10.1492 26.9335 8.06214 28.0112 6.22194C29.1114 4.3593 30.5933 2.91182 32.4569 1.87952C34.3206 0.847209 36.3638 0.331055 38.5867 0.331055C40.832 0.331055 42.8753 0.847209 44.7164 1.87952C46.58 2.91182 48.0507 4.3593 49.1285 6.22194C50.2062 8.06214 50.7451 10.1492 50.7451 12.4831C50.7451 14.817 50.2062 16.9153 49.1285 18.7779C48.0507 20.6181 46.58 22.0656 44.7164 23.1204C42.8528 24.1527 40.8096 24.6688 38.5867 24.6688ZM38.5867 18.5423C40.2707 18.5423 41.5954 17.9925 42.5609 16.8929C43.5489 15.7932 44.0428 14.3233 44.0428 12.4831C44.0428 10.598 43.5489 9.11689 42.5609 8.0397C41.5954 6.94007 40.2707 6.39025 38.5867 6.39025C36.8802 6.39025 35.5443 6.94007 34.5788 8.0397C33.6133 9.11689 33.1305 10.598 33.1305 12.4831C33.1305 14.3458 33.6133 15.8269 34.5788 16.9265C35.5443 18.0037 36.8802 18.5423 38.5867 18.5423Z" fill="#424B5A"/>
</g>
</svg>
