<svg width="41" height="25" viewBox="0 0 41 25" fill="none" xmlns="http://www.w3.org/2000/svg">
<g id="Vector">
<path d="M7.10125 19.3839H14.4771V24.4332H0.5V0.701338H7.10125V19.3839Z" fill="#424B5A"/>
<path d="M28.587 24.6688C26.3642 24.6688 24.3209 24.1527 22.4573 23.1204C20.5937 22.0656 19.1118 20.6181 18.0116 18.7779C16.9338 16.9153 16.3949 14.817 16.3949 12.4831C16.3949 10.1492 16.9338 8.06214 18.0116 6.22194C19.1118 4.3593 20.5937 2.91182 22.4573 1.87952C24.3209 0.847209 26.3642 0.331055 28.587 0.331055C30.8324 0.331055 32.8756 0.847209 34.7168 1.87952C36.5804 2.91182 38.0511 4.3593 39.1288 6.22194C40.2066 8.06214 40.7455 10.1492 40.7455 12.4831C40.7455 14.817 40.2066 16.9153 39.1288 18.7779C38.0511 20.6181 36.5804 22.0656 34.7168 23.1204C32.8531 24.1527 30.8099 24.6688 28.587 24.6688ZM28.587 18.5423C30.271 18.5423 31.5958 17.9925 32.5613 16.8929C33.5492 15.7932 34.0432 14.3233 34.0432 12.4831C34.0432 10.598 33.5492 9.11689 32.5613 8.0397C31.5958 6.94007 30.271 6.39025 28.587 6.39025C26.8806 6.39025 25.5446 6.94007 24.5791 8.0397C23.6136 9.11689 23.1309 10.598 23.1309 12.4831C23.1309 14.3458 23.6136 15.8269 24.5791 16.9265C25.5446 18.0037 26.8806 18.5423 28.587 18.5423Z" fill="#424B5A"/>
</g>
</svg>
